<svg width="10" height="9" viewBox="0 0 10 9" fill="none" xmlns="http://www.w3.org/2000/svg">
<path d="M8.36129 1.89474H6.96774V0.947368C6.96774 0.424895 6.55107 0 6.03871 0H3.25161C2.73925 0 2.32258 0.424895 2.32258 0.947368V1.89474H0.929032C0.416671 1.89474 0 2.31963 0 2.84211V4.26316H9.29032V2.84211C9.29032 2.31963 8.87365 1.89474 8.36129 1.89474ZM3.25161 0.947368H6.03871V1.89474H3.25161V0.947368ZM5.57419 5.68421H3.71613V4.73684H0V8.05263C0 8.5751 0.416671 9 0.929032 9H8.36129C8.87365 9 9.29032 8.5751 9.29032 8.05263V4.73684H5.57419V5.68421Z" fill="#E8EDDF"/>
</svg>
