<svg width="13" height="12" viewBox="0 0 13 12" fill="none" xmlns="http://www.w3.org/2000/svg">
<path d="M3.80648 8.3905L4.45164 7.6095L2.37474 6L4.45164 4.3905L3.80648 3.6095L1.22583 5.6095C1.16537 5.65634 1.11655 5.71576 1.08301 5.78336C1.04946 5.85095 1.03204 5.92499 1.03204 6C1.03204 6.075 1.04946 6.14904 1.08301 6.21664C1.11655 6.28424 1.16537 6.34366 1.22583 6.3905L3.80648 8.3905ZM8.58067 3.6095L7.93551 4.3905L10.0124 6L7.93551 7.6095L8.58067 8.3905L11.1613 6.3905C11.2218 6.34366 11.2706 6.28424 11.3041 6.21664C11.3377 6.14904 11.3551 6.075 11.3551 6C11.3551 5.92499 11.3377 5.85095 11.3041 5.78336C11.2706 5.71576 11.2218 5.65634 11.1613 5.6095L8.58067 3.6095Z" fill="#E8EDDF"/>
<path d="M7.72956 1.60799L5.66504 10.608L4.65704 10.391L6.72156 1.39099L7.72956 1.60799Z" fill="#E8EDDF"/>
</svg>
