<svg width="124" height="124" viewBox="0 0 124 124" fill="none" xmlns="http://www.w3.org/2000/svg">
<path d="M62 116.25C47.612 116.25 33.8133 110.534 23.6395 100.361C13.4656 90.1867 7.75 76.388 7.75 62C7.75 47.612 13.4656 33.8133 23.6395 23.6395C33.8133 13.4656 47.612 7.75 62 7.75C76.388 7.75 90.1867 13.4656 100.361 23.6395C110.534 33.8133 116.25 47.612 116.25 62C116.25 76.388 110.534 90.1867 100.361 100.361C90.1867 110.534 76.388 116.25 62 116.25ZM62 124C78.4434 124 94.2134 117.468 105.841 105.841C117.468 94.2134 124 78.4434 124 62C124 45.5566 117.468 29.7866 105.841 18.1594C94.2134 6.53213 78.4434 0 62 0C45.5566 0 29.7866 6.53213 18.1594 18.1594C6.53213 29.7866 0 45.5566 0 62C0 78.4434 6.53213 94.2134 18.1594 105.841C29.7866 117.468 45.5566 124 62 124V124Z" fill="#6153CC"/>
<path d="M33.2094 74.1443C34.0994 73.6304 35.157 73.4912 36.1497 73.7571C37.1424 74.0231 37.9887 74.6725 38.5026 75.5625C40.8827 79.6881 44.3078 83.1138 48.4329 85.4948C52.5581 87.8757 57.2377 89.1278 62.0006 89.125C66.7636 89.1278 71.4432 87.8757 75.5683 85.4948C79.6935 83.1138 83.1185 79.6881 85.4986 75.5625C85.7512 75.1182 86.0892 74.7283 86.493 74.4152C86.8969 74.1021 87.3588 73.872 87.8519 73.7381C88.3451 73.6042 88.8599 73.5692 89.3667 73.6351C89.8735 73.7009 90.3622 73.8664 90.8048 74.1219C91.2473 74.3774 91.635 74.718 91.9454 75.1239C92.2558 75.5299 92.4829 75.9932 92.6135 76.4873C92.7441 76.9813 92.7757 77.4964 92.7065 78.0027C92.6373 78.509 92.4686 78.9966 92.2101 79.4375C89.1498 84.7412 84.7465 89.1453 79.4432 92.2064C74.14 95.2676 68.1239 96.8778 62.0006 96.875C55.8773 96.8778 49.8613 95.2676 44.558 92.2064C39.2548 89.1453 34.8514 84.7412 31.7911 79.4375C31.2773 78.5475 31.138 77.4898 31.404 76.4972C31.67 75.5045 32.3194 74.6581 33.2094 74.1443ZM54.2506 50.375C54.2506 56.792 50.7786 62 46.5006 62C42.2226 62 38.7506 56.792 38.7506 50.375C38.7506 43.958 42.2226 38.75 46.5006 38.75C50.7786 38.75 54.2506 43.958 54.2506 50.375ZM85.2506 50.375C85.2506 56.792 81.7786 62 77.5006 62C73.2226 62 69.7506 56.792 69.7506 50.375C69.7506 43.958 73.2226 38.75 77.5006 38.75C81.7786 38.75 85.2506 43.958 85.2506 50.375Z" fill="#6153CC"/>
</svg>
