<svg width="10" height="10" viewBox="0 0 10 10" fill="none" xmlns="http://www.w3.org/2000/svg">
<g clip-path="url(#clip0)">
<path fill-rule="evenodd" clip-rule="evenodd" d="M5.29688 0.34375C2.6984 0.34375 0.59375 2.4484 0.59375 5.04687C0.59375 7.12801 1.94002 8.8858 3.80951 9.50896C4.04467 9.55012 4.13285 9.40902 4.13285 9.28557C4.13285 9.17387 4.12697 8.8035 4.12697 8.40961C2.94531 8.62713 2.63961 8.12154 2.54555 7.85699C2.49264 7.72178 2.26336 7.30437 2.06348 7.19268C1.89887 7.10449 1.66371 6.88697 2.0576 6.88109C2.42797 6.87521 2.69252 7.22207 2.7807 7.36316C3.20398 8.07451 3.88006 7.87463 4.15049 7.75117C4.19164 7.44547 4.3151 7.23971 4.45031 7.12213C3.40387 7.00455 2.31039 6.59891 2.31039 4.79996C2.31039 4.2885 2.49264 3.86521 2.79246 3.536C2.74543 3.41842 2.58082 2.93635 2.83949 2.28967C2.83949 2.28967 3.23338 2.16621 4.13285 2.77174C4.5091 2.66592 4.90887 2.61301 5.30863 2.61301C5.7084 2.61301 6.10816 2.66592 6.48441 2.77174C7.38389 2.16033 7.77777 2.28967 7.77777 2.28967C8.03645 2.93635 7.87184 3.41842 7.82481 3.536C8.12463 3.86521 8.30688 4.28262 8.30688 4.79996C8.30688 6.60478 7.20752 7.00455 6.16107 7.12213C6.33156 7.2691 6.47854 7.55129 6.47854 7.99221C6.47854 8.62125 6.47266 9.12683 6.47266 9.28557C6.47266 9.40902 6.56084 9.55599 6.796 9.50896C7.72964 9.19375 8.54093 8.59369 9.11568 7.79325C9.69044 6.99281 9.99972 6.03229 10 5.04687C10 2.4484 7.89535 0.34375 5.29688 0.34375Z" fill="#E8EDDF"/>
</g>
<defs>
<clipPath id="clip0">
<rect width="9.40625" height="9.40625" fill="white" transform="translate(0.59375 0.34375)"/>
</clipPath>
</defs>
</svg>