<svg width="10" height="10" viewBox="0 0 10 10" fill="none" xmlns="http://www.w3.org/2000/svg">
<path d="M5.00001 0.199951C2.34901 0.199951 0.200012 2.34895 0.200012 4.99995C0.200012 7.65095 2.34901 9.79995 5.00001 9.79995C7.65101 9.79995 9.80001 7.65095 9.80001 4.99995C9.80001 2.34895 7.65101 0.199951 5.00001 0.199951ZM3.82501 6.98945H2.85301V3.86145H3.82501V6.98945ZM3.33301 3.47745C3.02601 3.47745 2.82751 3.25995 2.82751 2.99095C2.82751 2.71645 3.03201 2.50545 3.34551 2.50545C3.65901 2.50545 3.85101 2.71645 3.85701 2.99095C3.85701 3.25995 3.65901 3.47745 3.33301 3.47745ZM7.37501 6.98945H6.40301V5.25595C6.40301 4.85245 6.26201 4.57845 5.91051 4.57845C5.64201 4.57845 5.48251 4.76395 5.41201 4.94245C5.38601 5.00595 5.37951 5.09595 5.37951 5.18545V6.98895H4.40701V4.85895C4.40701 4.46845 4.39451 4.14195 4.38151 3.86095H5.22601L5.27051 4.29545H5.29001C5.41801 4.09145 5.73151 3.79045 6.25601 3.79045C6.89551 3.79045 7.37501 4.21895 7.37501 5.13995V6.98945V6.98945Z" fill="#E8EDDF"/>
</svg>
