<svg width="47" height="48" viewBox="0 0 47 48" fill="none" xmlns="http://www.w3.org/2000/svg">
<path d="M4.11794 34.3125C2.86794 33.6042 1.90961 32.6042 1.24294 31.3125C0.576276 30.0208 0.201276 28.7917 0.117943 27.625C0.242943 26.625 0.513776 25.8542 0.930443 25.3125C1.30544 24.7292 1.76378 24.2708 2.30544 23.9375C2.84711 23.5625 3.40961 23.2917 3.99294 23.125C4.57628 22.9167 5.13878 22.75 5.68044 22.625L6.61794 22.9375C6.82628 23.1458 7.03461 23.3333 7.24294 23.5C7.49294 23.6667 7.72211 23.8333 7.93044 24C8.34711 23.8333 8.59711 23.5833 8.68044 23.25C8.80544 22.9167 8.93044 22.5833 9.05544 22.25C9.18044 21.7917 9.32628 21.3333 9.49294 20.875C9.65961 20.4167 9.86794 19.9583 10.1179 19.5C10.0763 19.125 10.0971 18.7917 10.1804 18.5C10.2638 18.2083 10.3471 17.9583 10.4304 17.75C10.1804 17.5417 9.99294 17.4375 9.86794 17.4375C9.78461 17.3958 9.61794 17.3333 9.36794 17.25C9.24294 17.25 9.11794 17.25 8.99294 17.25C8.86794 17.2083 8.72211 17.1667 8.55544 17.125C7.93044 16.6667 7.51378 16.2917 7.30544 16C7.13878 15.6667 6.95128 15.3333 6.74294 15C6.53461 14.6667 6.34711 14.375 6.18044 14.125C6.01378 13.875 5.82628 13.6458 5.61794 13.4375L4.86794 12.9375L5.24294 12.1875C5.32628 12.1042 5.36794 12 5.36794 11.875C5.36794 11.7083 5.28461 11.4792 5.11794 11.1875C4.99294 10.6458 4.97211 10.25 5.05544 10L5.18044 9.25C5.59711 8.70833 5.82628 8.39583 5.86794 8.3125L6.49294 7.6875C7.45128 7.4375 8.43044 7.16667 9.43044 6.875C10.4304 6.54167 11.4096 6.20833 12.3679 5.875C13.3263 5.54167 14.3054 5.20833 15.3054 4.875C16.3054 4.54167 17.3054 4.25 18.3054 4C18.6388 3.70833 18.9929 3.54167 19.3679 3.5C19.7846 3.41667 20.1596 3.35417 20.4929 3.3125C20.7846 3.3125 21.0554 3.29167 21.3054 3.25C21.5554 3.20833 21.7429 3.10417 21.8679 2.9375C22.5763 2.6875 23.2638 2.47917 23.9304 2.3125C25.1804 1.97917 26.8263 1.58333 28.8679 1.125C30.9096 0.666667 33.2013 0.333333 35.7429 0.125L37.0554 0.0625C37.3054 0.104167 37.5554 0.125 37.8054 0.125C38.0554 0.0833333 38.3054 0.0625 38.5554 0.0625C40.7221 0.0625 42.1596 0.729167 42.8679 2.0625C43.2846 2.27083 43.6596 2.54167 43.9929 2.875C44.3263 3.16667 44.6388 3.45833 44.9304 3.75C45.1388 3.95833 45.3263 4.14583 45.4929 4.3125C45.6596 4.4375 45.8054 4.54167 45.9304 4.625L46.4304 5.125C46.8888 6.125 46.9721 7.10417 46.6804 8.0625C46.4304 8.5625 46.1596 8.85417 45.8679 8.9375C45.5763 9.02083 45.2846 9.10417 44.9929 9.1875L44.1804 9.625C43.6388 9.58333 43.2221 9.5625 42.9304 9.5625C42.6804 9.5625 42.3888 9.5625 42.0554 9.5625C40.8054 9.5625 39.3471 9.64583 37.6804 9.8125C36.0554 9.9375 34.3888 10.1458 32.6804 10.4375C30.9721 10.6875 29.3054 11.0208 27.6804 11.4375C26.0554 11.8125 24.6388 12.2292 23.4304 12.6875C23.0971 12.9375 22.6596 13.1667 22.1179 13.375C21.9929 13.4167 21.8054 13.5208 21.5554 13.6875C21.5971 14.0208 21.5971 14.3542 21.5554 14.6875C21.5138 14.9792 21.4513 15.2708 21.3679 15.5625C21.3263 15.7708 21.2846 16 21.2429 16.25C21.2429 16.4583 21.2221 16.6875 21.1804 16.9375C20.3054 17.9792 19.8888 19.2083 19.9304 20.625L19.6179 21.25C19.4513 21.4167 19.3054 21.6667 19.1804 22C19.0971 22.2917 19.0971 22.6042 19.1804 22.9375L19.4304 23.6875C20.2638 23.6042 21.0763 23.5208 21.8679 23.4375C22.7013 23.3125 23.5763 23.1875 24.4929 23.0625C25.6596 22.8542 26.8263 22.6875 27.9929 22.5625C29.2013 22.3958 30.4513 22.3125 31.7429 22.3125H34.1804L33.6179 22.875L34.3054 22.9375L33.9304 23.9375C34.2221 24.0625 34.4304 24.1667 34.5554 24.25C34.7221 24.2917 34.8679 24.3542 34.9929 24.4375L35.4304 25.0625C35.6388 25.1875 35.8263 25.3958 35.9929 25.6875C36.1596 25.9375 36.2638 26.2917 36.3054 26.75L36.1179 27.375L33.1804 31.125L32.8054 31.625L32.1804 31.4375C31.3888 31.3958 30.6388 31.4792 29.9304 31.6875C29.5971 31.7708 29.2429 31.875 28.8679 32C28.4929 32.0833 28.1179 32.125 27.7429 32.125C26.7429 32.2917 25.9096 32.4375 25.2429 32.5625C24.5763 32.6458 23.9096 32.7292 23.2429 32.8125C22.3263 32.9792 21.4304 33.1458 20.5554 33.3125C19.7221 33.4375 18.9304 33.6458 18.1804 33.9375C17.7221 33.9792 17.4513 34 17.3679 34C17.2846 33.9583 17.2013 33.9375 17.1179 33.9375C16.7013 33.9375 16.2846 34 15.8679 34.125C15.4513 34.25 15.0554 34.375 14.6804 34.5C14.4304 34.7083 14.2638 34.9375 14.1804 35.1875C14.0971 35.3958 14.0138 35.625 13.9304 35.875C13.8471 36.1667 13.7221 36.4583 13.5554 36.75C13.4304 37 13.2638 37.2708 13.0554 37.5625L13.1179 38.6875C12.7429 38.7708 12.5554 38.8333 12.5554 38.875C12.5554 38.875 12.5346 38.875 12.4929 38.875C12.4929 39.2083 12.4304 39.5208 12.3054 39.8125C12.2221 40.1042 12.1388 40.375 12.0554 40.625C11.9721 40.7917 11.9096 40.9375 11.8679 41.0625C11.8263 41.1875 11.8054 41.3125 11.8054 41.4375C12.2221 42.1875 12.3263 43.0417 12.1179 44C11.9513 44.7917 11.6388 45.5 11.1804 46.125C10.7221 46.7083 10.1804 47.1667 9.55544 47.5C8.88878 47.5833 8.38878 47.5625 8.05544 47.4375C7.76378 47.3125 7.45128 47.1875 7.11794 47.0625C6.90961 46.9792 6.70128 46.9167 6.49294 46.875C6.28461 46.7917 6.07628 46.7292 5.86794 46.6875L5.11794 46.0625C4.99294 45.8125 4.84711 45.5833 4.68044 45.375C4.51378 45.125 4.34711 44.875 4.18044 44.625C3.97211 44.3333 3.76378 44.0417 3.55544 43.75C3.34711 43.4583 3.15961 43.125 2.99294 42.75C2.70128 41.2917 2.63878 40.0833 2.80544 39.125C3.01378 38.125 3.28461 37.1458 3.61794 36.1875C3.70128 35.8542 3.78461 35.5417 3.86794 35.25C3.95128 34.9583 4.03461 34.6458 4.11794 34.3125Z" fill="#6153CC"/>
</svg>
