<svg width="32" height="51" viewBox="0 0 32 51" fill="none" xmlns="http://www.w3.org/2000/svg">
<circle cx="15.8667" cy="16.7614" r="15.8667" fill="#E8EDDF"/>
<path d="M15.8667 51L2.1258 24.6947L29.6077 24.6947L15.8667 51Z" fill="#E8EDDF"/>
<path d="M9.70772 21.6274C9.27803 21.3839 8.94861 21.0402 8.71944 20.5962C8.49027 20.1522 8.36137 19.7296 8.33272 19.3286C8.37569 18.9848 8.46879 18.7199 8.61202 18.5337C8.74092 18.3331 8.89848 18.1756 9.08467 18.061C9.27087 17.9321 9.46423 17.839 9.66475 17.7817C9.86527 17.7101 10.0586 17.6528 10.2448 17.6098L10.5671 17.7173C10.6387 17.7889 10.7103 17.8533 10.7819 17.9106C10.8679 17.9679 10.9467 18.0252 11.0183 18.0825C11.1615 18.0252 11.2474 17.9393 11.2761 17.8247C11.319 17.7101 11.362 17.5955 11.405 17.4809C11.448 17.3234 11.4981 17.1658 11.5554 17.0083C11.6127 16.8507 11.6843 16.6932 11.7702 16.5356C11.7559 16.4067 11.7631 16.2921 11.7917 16.1919C11.8204 16.0916 11.849 16.0057 11.8776 15.9341C11.7917 15.8624 11.7273 15.8266 11.6843 15.8266C11.6556 15.8123 11.5983 15.7908 11.5124 15.7622C11.4694 15.7622 11.4265 15.7622 11.3835 15.7622C11.3405 15.7479 11.2904 15.7335 11.2331 15.7192C11.0183 15.5617 10.875 15.4327 10.8034 15.3325C10.7461 15.2179 10.6817 15.1033 10.6101 14.9887C10.5384 14.8742 10.474 14.7739 10.4167 14.688C10.3594 14.602 10.295 14.5232 10.2233 14.4516L9.96553 14.2798L10.0944 14.0219C10.1231 13.9933 10.1374 13.9575 10.1374 13.9145C10.1374 13.8572 10.1088 13.7785 10.0515 13.6782C10.0085 13.492 10.0013 13.3559 10.03 13.27L10.073 13.0122C10.2162 12.826 10.295 12.7186 10.3093 12.6899L10.5241 12.4751C10.8536 12.3891 11.1901 12.296 11.5339 12.1958C11.8776 12.0812 12.2142 11.9666 12.5437 11.852C12.8731 11.7374 13.2097 11.6229 13.5534 11.5083C13.8972 11.3937 14.2409 11.2934 14.5847 11.2075C14.6993 11.1072 14.821 11.0499 14.9499 11.0356C15.0931 11.007 15.222 10.9855 15.3366 10.9712C15.4369 10.9712 15.53 10.964 15.6159 10.9497C15.7019 10.9354 15.7663 10.8995 15.8093 10.8423C16.0528 10.7563 16.2891 10.6847 16.5183 10.6274C16.948 10.5128 17.5137 10.3768 18.2155 10.2192C18.9174 10.0617 19.7051 9.94707 20.5788 9.87546L21.03 9.85397C21.1159 9.8683 21.2019 9.87546 21.2878 9.87546C21.3737 9.86113 21.4597 9.85397 21.5456 9.85397C22.2904 9.85397 22.7845 10.0831 23.028 10.5415C23.1713 10.6131 23.3002 10.7062 23.4148 10.8208C23.5293 10.921 23.6368 11.0213 23.737 11.1216C23.8086 11.1932 23.8731 11.2576 23.9304 11.3149C23.9877 11.3579 24.0378 11.3937 24.0808 11.4223L24.2526 11.5942C24.4102 11.938 24.4388 12.2745 24.3386 12.604C24.2526 12.7758 24.1595 12.8761 24.0593 12.9048C23.959 12.9334 23.8588 12.962 23.7585 12.9907L23.4792 13.1411C23.293 13.1268 23.1498 13.1196 23.0495 13.1196C22.9636 13.1196 22.8633 13.1196 22.7487 13.1196C22.319 13.1196 21.8177 13.1482 21.2448 13.2055C20.6862 13.2485 20.1133 13.3201 19.5261 13.4204C18.9388 13.5063 18.3659 13.6209 17.8073 13.7641C17.2487 13.893 16.7618 14.0363 16.3464 14.1938C16.2318 14.2798 16.0814 14.3585 15.8952 14.4301C15.8523 14.4445 15.7878 14.4803 15.7019 14.5376C15.7162 14.6522 15.7162 14.7667 15.7019 14.8813C15.6875 14.9816 15.6661 15.0818 15.6374 15.1821C15.6231 15.2537 15.6088 15.3325 15.5944 15.4184C15.5944 15.49 15.5873 15.5688 15.573 15.6548C15.2722 16.0128 15.1289 16.4354 15.1433 16.9223L15.0358 17.1372C14.9786 17.1945 14.9284 17.2804 14.8855 17.395C14.8568 17.4952 14.8568 17.6027 14.8855 17.7173L14.9714 17.9751C15.2579 17.9464 15.5371 17.9178 15.8093 17.8891C16.0957 17.8462 16.3965 17.8032 16.7116 17.7602C17.1127 17.6886 17.5137 17.6313 17.9148 17.5883C18.3301 17.5311 18.7598 17.5024 19.2038 17.5024H20.0417L19.8483 17.6958L20.0847 17.7173L19.9558 18.061C20.056 18.104 20.1276 18.1398 20.1706 18.1684C20.2279 18.1827 20.278 18.2042 20.321 18.2329L20.4714 18.4477C20.543 18.4907 20.6075 18.5623 20.6648 18.6626C20.722 18.7485 20.7579 18.8702 20.7722 19.0278L20.7077 19.2426L19.698 20.5317L19.569 20.7036L19.3542 20.6391C19.0821 20.6248 18.8243 20.6535 18.5808 20.7251C18.4662 20.7537 18.3444 20.7895 18.2155 20.8325C18.0866 20.8611 17.9577 20.8755 17.8288 20.8755C17.4851 20.9327 17.1986 20.9829 16.9694 21.0258C16.7403 21.0545 16.5111 21.0831 16.2819 21.1118C15.9668 21.1691 15.6589 21.2264 15.3581 21.2837C15.0717 21.3266 14.7995 21.3982 14.5417 21.4985C14.3842 21.5128 14.2911 21.52 14.2624 21.52C14.2338 21.5057 14.2051 21.4985 14.1765 21.4985C14.0332 21.4985 13.89 21.52 13.7468 21.563C13.6036 21.6059 13.4675 21.6489 13.3386 21.6919C13.2526 21.7635 13.1954 21.8423 13.1667 21.9282C13.1381 21.9998 13.1094 22.0786 13.0808 22.1645C13.0521 22.2648 13.0092 22.365 12.9519 22.4653C12.9089 22.5512 12.8516 22.6443 12.78 22.7446L12.8015 23.1313C12.6726 23.16 12.6081 23.1814 12.6081 23.1958C12.6081 23.1958 12.6009 23.1958 12.5866 23.1958C12.5866 23.3104 12.5651 23.4178 12.5222 23.518C12.4935 23.6183 12.4649 23.7114 12.4362 23.7973C12.4076 23.8546 12.3861 23.9048 12.3718 23.9477C12.3575 23.9907 12.3503 24.0337 12.3503 24.0766C12.4935 24.3344 12.5293 24.6281 12.4577 24.9575C12.4004 25.2296 12.293 25.4731 12.1355 25.688C11.9779 25.8885 11.7917 26.046 11.5769 26.1606C11.3477 26.1893 11.1758 26.1821 11.0612 26.1391C10.961 26.0962 10.8536 26.0532 10.739 26.0102C10.6674 25.9816 10.5957 25.9601 10.5241 25.9458C10.4525 25.9171 10.3809 25.8956 10.3093 25.8813L10.0515 25.6665C10.0085 25.5805 9.95837 25.5018 9.90108 25.4301C9.84379 25.3442 9.7865 25.2583 9.7292 25.1723C9.65759 25.0721 9.58598 24.9718 9.51436 24.8716C9.44275 24.7713 9.37829 24.6567 9.321 24.5278C9.22074 24.0265 9.19926 23.6111 9.25655 23.2817C9.32816 22.938 9.42126 22.6014 9.53584 22.2719C9.56449 22.1574 9.59314 22.0499 9.62178 21.9497C9.65043 21.8494 9.67907 21.742 9.70772 21.6274Z" fill="#6153CC"/>
</svg>
