<svg width="10" height="9" viewBox="0 0 10 9" fill="none" xmlns="http://www.w3.org/2000/svg">
<g clip-path="url(#clip0)">
<path d="M3.92776 5.16006C4.46647 5.68947 5.11829 6.0982 5.83744 6.35756L6.81034 5.60756C6.83919 5.58831 6.87339 5.57801 6.90841 5.57801C6.94343 5.57801 6.97763 5.58831 7.00647 5.60756L8.81293 6.73506C8.88151 6.775 8.93956 6.82984 8.9825 6.89526C9.02544 6.96067 9.0521 7.03486 9.06036 7.11196C9.06861 7.18907 9.05826 7.26698 9.03009 7.33954C9.00193 7.4121 8.95674 7.47732 8.89809 7.53006L8.05163 8.34006C7.93042 8.45609 7.78143 8.54124 7.61797 8.58792C7.45451 8.6346 7.28167 8.64134 7.11486 8.60756C5.45091 8.27464 3.91722 7.49493 2.68905 6.35756C1.48815 5.20887 0.657125 3.74727 0.296796 2.15006C0.261201 1.99097 0.26863 1.82567 0.318364 1.67018C0.368099 1.51468 0.458452 1.37428 0.580667 1.26256L1.45809 0.442557C1.51238 0.388504 1.5786 0.347051 1.65178 0.321301C1.72495 0.295552 1.8032 0.286174 1.88064 0.293869C1.95809 0.301564 2.03274 0.326134 2.099 0.365737C2.16526 0.40534 2.22141 0.458952 2.26325 0.522557L3.46583 2.25006C3.48657 2.27718 3.49777 2.31005 3.49777 2.34381C3.49777 2.37757 3.48657 2.41043 3.46583 2.43756L2.67357 3.36006C2.94856 4.04279 3.37699 4.65766 3.92776 5.16006Z" fill="#E8EDDF"/>
</g>
<defs>
<clipPath id="clip0">
<rect width="9.29032" height="9" fill="white"/>
</clipPath>
</defs>
</svg>
