<svg width="62" height="64" viewBox="0 0 62 64" fill="none" xmlns="http://www.w3.org/2000/svg">
<path d="M51.6668 0C51.6668 12.0163 49.4475 23.5405 45.4972 32.0374C41.547 40.5342 36.1892 45.3077 30.6027 45.3077C25.0161 45.3077 19.6584 40.5342 15.7081 32.0374C11.7578 23.5405 9.53858 12.0163 9.53857 0H30.6027H51.6668Z" fill="#6153CC"/>
<path d="M34.9744 7.94872C34.9744 14.4839 33.132 20.7515 29.8525 25.3725C26.573 29.9936 22.1251 32.5897 17.4872 32.5897C12.8493 32.5897 8.40136 29.9936 5.12188 25.3726C1.8424 20.7515 7.00302e-07 14.4839 0 7.94872L2.38462 7.94872C2.38462 13.4503 3.99564 18.7265 6.75641 22.6167C9.51718 26.5068 13.5829 30.2051 17.4872 30.2051C21.3915 30.2051 25.1359 26.5068 27.8967 22.6167C30.6575 18.7265 31.5897 13.4503 31.5897 7.94872L34.9744 7.94872Z" fill="#6153CC"/>
<path d="M27.0256 7.94872C27.0256 14.4839 28.868 20.7515 32.1475 25.3725C35.427 29.9936 39.8749 32.5897 44.5128 32.5897C49.1507 32.5897 53.5986 29.9936 56.8781 25.3726C60.1576 20.7515 62 14.4839 62 7.94872L59.6154 7.94872C59.6154 13.4503 58.0044 18.7265 55.2436 22.6167C52.4828 26.5068 48.4171 30.2051 44.5128 30.2051C40.6085 30.2051 36.8641 26.5068 34.1033 22.6167C31.3425 18.7265 30.4103 13.4503 30.4103 7.94872L27.0256 7.94872Z" fill="#6153CC"/>
<path d="M31.7949 55.6049L31.7951 45.3077L33.1363 50.0769L35.3718 55.2436L38.9488 60.4103H31.795L31.7949 55.6049Z" fill="#6153CC"/>
<path d="M29.4102 55.6049L29.41 45.3077L28.0688 50.0769L25.8333 55.2436L22.2563 60.4103H29.4101L29.4102 55.6049Z" fill="#6153CC"/>
<rect x="29.4102" y="43.718" width="2.38462" height="16.6923" fill="#6153CC"/>
<path d="M20.6665 62.4102C20.6665 61.3057 21.5619 60.4102 22.6665 60.4102H38.5383C39.6429 60.4102 40.5383 61.3057 40.5383 62.4102V63.5897H20.6665V62.4102Z" fill="#6153CC"/>
<rect y="7.15384" width="62" height="2.38462" fill="#6153CC"/>
</svg>
