<svg width="119" height="119" viewBox="0 0 69 69" fill="none" xmlns="http://www.w3.org/2000/svg">
<path d="M62.5312 4.3125H45.2812C41.71 4.3125 38.8125 7.20996 38.8125 10.7812V28.0312C38.8125 31.6025 41.71 34.5 45.2812 34.5H56.0625V43.125C56.0625 47.8822 52.1947 51.75 47.4375 51.75H46.3594C44.567 51.75 43.125 53.192 43.125 54.9844V61.4531C43.125 63.2455 44.567 64.6875 46.3594 64.6875H47.4375C59.3508 64.6875 69 55.0383 69 43.125V10.7812C69 7.20996 66.1025 4.3125 62.5312 4.3125ZM23.7188 4.3125H6.46875C2.89746 4.3125 0 7.20996 0 10.7812V28.0312C0 31.6025 2.89746 34.5 6.46875 34.5H17.25V43.125C17.25 47.8822 13.3822 51.75 8.625 51.75H7.54688C5.75449 51.75 4.3125 53.192 4.3125 54.9844V61.4531C4.3125 63.2455 5.75449 64.6875 7.54688 64.6875H8.625C20.5383 64.6875 30.1875 55.0383 30.1875 43.125V10.7812C30.1875 7.20996 27.29 4.3125 23.7188 4.3125Z" fill="#6153CC"/>
</svg>
