<svg width="124" height="124" viewBox="0 0 124 124" fill="none" xmlns="http://www.w3.org/2000/svg">
<path d="M33.25 49.875C33.25 48.4658 33.6679 47.0883 34.4508 45.9166C35.2337 44.7449 36.3465 43.8316 37.6484 43.2924C38.9503 42.7531 40.3829 42.612 41.765 42.8869C43.1472 43.1618 44.4167 43.8404 45.4132 44.8369C46.4096 45.8333 47.0882 47.1029 47.3631 48.485C47.638 49.8671 47.4969 51.2997 46.9577 52.6016C46.4184 53.9035 45.5052 55.0163 44.3335 55.7992C43.1618 56.5821 41.7842 57 40.375 57C38.4854 57 36.6731 56.2493 35.3369 54.9131C34.0007 53.5769 33.25 51.7647 33.25 49.875ZM83.125 57C84.5342 57 85.9118 56.5821 87.0835 55.7992C88.2552 55.0163 89.1684 53.9035 89.7077 52.6016C90.2469 51.2997 90.388 49.8671 90.1131 48.485C89.8382 47.1029 89.1596 45.8333 88.1632 44.8369C87.1667 43.8404 85.8972 43.1618 84.515 42.8869C83.1329 42.612 81.7003 42.7531 80.3984 43.2924C79.0965 43.8316 77.9837 44.7449 77.2008 45.9166C76.4179 47.0883 76 48.4658 76 49.875C76 51.7647 76.7507 53.5769 78.0869 54.9131C79.4231 56.2493 81.2354 57 83.125 57ZM123.5 61.75C123.5 73.963 119.878 85.9017 113.093 96.0565C106.308 106.211 96.6641 114.126 85.3807 118.8C74.0974 123.473 61.6815 124.696 49.7032 122.313C37.7249 119.931 26.7221 114.05 18.0862 105.414C9.45029 96.778 3.56917 85.7752 1.18654 73.7968C-1.1961 61.8185 0.0267553 49.4026 4.70047 38.1193C9.37418 26.836 17.2888 17.1919 27.4436 10.4068C37.5983 3.62157 49.537 0 61.75 0C78.1215 0.0185437 93.817 6.53028 105.393 18.1066C116.97 29.683 123.481 45.3786 123.5 61.75ZM114 61.75C114 51.4159 110.936 41.3139 105.194 32.7215C99.453 24.129 91.2927 17.432 81.7452 13.4773C72.1978 9.52262 61.6921 8.48789 51.5566 10.504C41.4211 12.52 32.111 17.4964 24.8037 24.8037C17.4964 32.111 12.5201 41.421 10.504 51.5565C8.48792 61.692 9.52264 72.1978 13.4773 81.7452C17.432 91.2927 24.129 99.453 32.7215 105.194C41.3139 110.936 51.416 114 61.75 114C75.6028 113.984 88.8836 108.474 98.679 98.679C108.474 88.8836 113.984 75.6027 114 61.75V61.75ZM85.2613 80.9881C81.6537 77.3842 77.2659 74.6578 72.4368 73.0198C67.6077 71.3817 62.4667 70.8757 57.411 71.5408C52.3552 72.206 47.52 74.0245 43.279 76.8559C39.038 79.6874 35.5046 83.4558 32.952 87.8703C32.6396 88.4102 32.4366 89.0063 32.3546 89.6247C32.2726 90.2431 32.3132 90.8715 32.4741 91.4742C32.6349 92.0769 32.913 92.642 33.2922 93.1372C33.6715 93.6325 34.1446 94.0481 34.6845 94.3605C35.2244 94.6729 35.8206 94.8759 36.439 94.9579C37.0573 95.0399 37.6858 94.9993 38.2885 94.8384C38.8912 94.6776 39.4563 94.3995 39.9515 94.0203C40.4467 93.641 40.8624 93.1679 41.1748 92.628C43.767 88.15 47.7441 84.6357 52.5071 82.6144C56.8605 80.773 61.6646 80.2738 66.3035 81.181C70.9424 82.0881 75.2046 84.3602 78.5437 87.7058C80.0133 89.1749 81.2847 90.8296 82.3258 92.628C82.9567 93.7185 83.9949 94.5137 85.212 94.8387C86.4292 95.1638 87.7256 94.992 88.8161 94.3611C89.9066 93.7303 90.7018 92.6921 91.0269 91.4749C91.3519 90.2578 91.1801 88.9613 90.5493 87.8708C89.0937 85.3563 87.316 83.0425 85.2613 80.9881V80.9881Z" fill="#6153CC"/>
</svg>
